<?xml version="1.0" standalone="no"?>
<!DOCTYPE svg PUBLIC "-//W3C//DTD SVG 20010904//EN"
 "http://www.w3.org/TR/2001/REC-SVG-20010904/DTD/svg10.dtd">
<svg version="1.0" xmlns="http://www.w3.org/2000/svg"
 width="500.000000pt" height="500.000000pt" viewBox="0 0 500.000000 500.000000"
 preserveAspectRatio="xMidYMid meet">
<metadata>
Created by potrace 1.14, written by Peter Selinger 2001-2017
</metadata>
<g transform="translate(0.000000,500.000000) scale(0.100000,-0.100000)"
fill="#000000" stroke="none">
<path d="M0 2500 l0 -2500 2500 0 2500 0 0 2500 0 2500 -2500 0 -2500 0 0
-2500z m1700 905 l0 -65 -96 0 c-107 0 -160 -19 -185 -68 -16 -30 -15 -118 2
-170 10 -32 568 -1383 573 -1389 1 -2 87 266 189 595 214 681 209 657 154 802
-40 105 -75 160 -123 197 -34 25 -46 28 -131 31 l-93 4 0 64 0 64 540 0 541 0
-3 -62 -3 -63 -138 -5 -139 -5 -28 -32 c-36 -39 -46 -89 -33 -159 10 -54 494
-1424 503 -1424 10 0 424 1234 443 1319 31 142 8 244 -63 283 -27 14 -56 18
-127 18 l-93 0 0 65 0 65 455 0 455 0 0 -64 0 -64 -102 -4 c-84 -2 -112 -7
-152 -27 -69 -34 -132 -103 -172 -186 -18 -38 -184 -498 -368 -1022 -185 -523
-339 -958 -342 -968 -5 -12 -17 -15 -52 -13 l-45 3 -297 813 c-164 448 -300
815 -302 817 -2 2 -120 -365 -263 -816 l-259 -819 -46 0 -45 0 -404 967 c-222
533 -424 1009 -448 1058 -78 157 -119 187 -273 195 l-105 5 -3 63 -3 62 541 0
540 0 0 -65z"/>
</g>
</svg>
